G04 #@! TF.GenerationSoftware,KiCad,Pcbnew,(5.0.2)-1*
G04 #@! TF.CreationDate,2018-12-31T00:39:44+01:00*
G04 #@! TF.ProjectId,pcb,7063622e-6b69-4636-9164-5f7063625858,1.1*
G04 #@! TF.SameCoordinates,Original*
G04 #@! TF.FileFunction,Legend,Top*
G04 #@! TF.FilePolarity,Positive*
%FSLAX46Y46*%
G04 Gerber Fmt 4.6, Leading zero omitted, Abs format (unit mm)*
G04 Created by KiCad (PCBNEW (5.0.2)-1) date 31/12/2018 00:39:44*
%MOMM*%
%LPD*%
G01*
G04 APERTURE LIST*
%ADD10C,0.300000*%
%ADD11C,0.150000*%
%ADD12C,0.120000*%
G04 APERTURE END LIST*
D10*
X121755142Y-115909285D02*
X121826571Y-115695000D01*
X121826571Y-115337857D01*
X121755142Y-115195000D01*
X121683714Y-115123571D01*
X121540857Y-115052142D01*
X121398000Y-115052142D01*
X121255142Y-115123571D01*
X121183714Y-115195000D01*
X121112285Y-115337857D01*
X121040857Y-115623571D01*
X120969428Y-115766428D01*
X120898000Y-115837857D01*
X120755142Y-115909285D01*
X120612285Y-115909285D01*
X120469428Y-115837857D01*
X120398000Y-115766428D01*
X120326571Y-115623571D01*
X120326571Y-115266428D01*
X120398000Y-115052142D01*
X121255142Y-114409285D02*
X121255142Y-113266428D01*
X121683714Y-111695000D02*
X121755142Y-111766428D01*
X121826571Y-111980714D01*
X121826571Y-112123571D01*
X121755142Y-112337857D01*
X121612285Y-112480714D01*
X121469428Y-112552142D01*
X121183714Y-112623571D01*
X120969428Y-112623571D01*
X120683714Y-112552142D01*
X120540857Y-112480714D01*
X120398000Y-112337857D01*
X120326571Y-112123571D01*
X120326571Y-111980714D01*
X120398000Y-111766428D01*
X120469428Y-111695000D01*
X121826571Y-110409285D02*
X121040857Y-110409285D01*
X120898000Y-110480714D01*
X120826571Y-110623571D01*
X120826571Y-110909285D01*
X120898000Y-111052142D01*
X121755142Y-110409285D02*
X121826571Y-110552142D01*
X121826571Y-110909285D01*
X121755142Y-111052142D01*
X121612285Y-111123571D01*
X121469428Y-111123571D01*
X121326571Y-111052142D01*
X121255142Y-110909285D01*
X121255142Y-110552142D01*
X121183714Y-110409285D01*
X120826571Y-109695000D02*
X122326571Y-109695000D01*
X120898000Y-109695000D02*
X120826571Y-109552142D01*
X120826571Y-109266428D01*
X120898000Y-109123571D01*
X120969428Y-109052142D01*
X121112285Y-108980714D01*
X121540857Y-108980714D01*
X121683714Y-109052142D01*
X121755142Y-109123571D01*
X121826571Y-109266428D01*
X121826571Y-109552142D01*
X121755142Y-109695000D01*
X121755142Y-107766428D02*
X121826571Y-107909285D01*
X121826571Y-108195000D01*
X121755142Y-108337857D01*
X121612285Y-108409285D01*
X121040857Y-108409285D01*
X120898000Y-108337857D01*
X120826571Y-108195000D01*
X120826571Y-107909285D01*
X120898000Y-107766428D01*
X121040857Y-107695000D01*
X121183714Y-107695000D01*
X121326571Y-108409285D01*
X120398000Y-105123571D02*
X120326571Y-105266428D01*
X120326571Y-105480714D01*
X120398000Y-105695000D01*
X120540857Y-105837857D01*
X120683714Y-105909285D01*
X120969428Y-105980714D01*
X121183714Y-105980714D01*
X121469428Y-105909285D01*
X121612285Y-105837857D01*
X121755142Y-105695000D01*
X121826571Y-105480714D01*
X121826571Y-105337857D01*
X121755142Y-105123571D01*
X121683714Y-105052142D01*
X121183714Y-105052142D01*
X121183714Y-105337857D01*
X121826571Y-103766428D02*
X121040857Y-103766428D01*
X120898000Y-103837857D01*
X120826571Y-103980714D01*
X120826571Y-104266428D01*
X120898000Y-104409285D01*
X121755142Y-103766428D02*
X121826571Y-103909285D01*
X121826571Y-104266428D01*
X121755142Y-104409285D01*
X121612285Y-104480714D01*
X121469428Y-104480714D01*
X121326571Y-104409285D01*
X121255142Y-104266428D01*
X121255142Y-103909285D01*
X121183714Y-103766428D01*
X121826571Y-103052142D02*
X120826571Y-103052142D01*
X120969428Y-103052142D02*
X120898000Y-102980714D01*
X120826571Y-102837857D01*
X120826571Y-102623571D01*
X120898000Y-102480714D01*
X121040857Y-102409285D01*
X121826571Y-102409285D01*
X121040857Y-102409285D02*
X120898000Y-102337857D01*
X120826571Y-102195000D01*
X120826571Y-101980714D01*
X120898000Y-101837857D01*
X121040857Y-101766428D01*
X121826571Y-101766428D01*
X121755142Y-100480714D02*
X121826571Y-100623571D01*
X121826571Y-100909285D01*
X121755142Y-101052142D01*
X121612285Y-101123571D01*
X121040857Y-101123571D01*
X120898000Y-101052142D01*
X120826571Y-100909285D01*
X120826571Y-100623571D01*
X120898000Y-100480714D01*
X121040857Y-100409285D01*
X121183714Y-100409285D01*
X121326571Y-101123571D01*
X121755142Y-98695000D02*
X121826571Y-98480714D01*
X121826571Y-98123571D01*
X121755142Y-97980714D01*
X121683714Y-97909285D01*
X121540857Y-97837857D01*
X121398000Y-97837857D01*
X121255142Y-97909285D01*
X121183714Y-97980714D01*
X121112285Y-98123571D01*
X121040857Y-98409285D01*
X120969428Y-98552142D01*
X120898000Y-98623571D01*
X120755142Y-98695000D01*
X120612285Y-98695000D01*
X120469428Y-98623571D01*
X120398000Y-98552142D01*
X120326571Y-98409285D01*
X120326571Y-98052142D01*
X120398000Y-97837857D01*
X121826571Y-96552142D02*
X121040857Y-96552142D01*
X120898000Y-96623571D01*
X120826571Y-96766428D01*
X120826571Y-97052142D01*
X120898000Y-97195000D01*
X121755142Y-96552142D02*
X121826571Y-96695000D01*
X121826571Y-97052142D01*
X121755142Y-97195000D01*
X121612285Y-97266428D01*
X121469428Y-97266428D01*
X121326571Y-97195000D01*
X121255142Y-97052142D01*
X121255142Y-96695000D01*
X121183714Y-96552142D01*
X121826571Y-95837857D02*
X120826571Y-95837857D01*
X120326571Y-95837857D02*
X120398000Y-95909285D01*
X120469428Y-95837857D01*
X120398000Y-95766428D01*
X120326571Y-95837857D01*
X120469428Y-95837857D01*
X120826571Y-95123571D02*
X121826571Y-95123571D01*
X120969428Y-95123571D02*
X120898000Y-95052142D01*
X120826571Y-94909285D01*
X120826571Y-94695000D01*
X120898000Y-94552142D01*
X121040857Y-94480714D01*
X121826571Y-94480714D01*
X120826571Y-93980714D02*
X120826571Y-93409285D01*
X120326571Y-93766428D02*
X121612285Y-93766428D01*
X121755142Y-93695000D01*
X121826571Y-93552142D01*
X121826571Y-93409285D01*
X121255142Y-92909285D02*
X121255142Y-91766428D01*
X121040857Y-91052142D02*
X121040857Y-90552142D01*
X121826571Y-90337857D02*
X121826571Y-91052142D01*
X120326571Y-91052142D01*
X120326571Y-90337857D01*
X120826571Y-89909285D02*
X120826571Y-89337857D01*
X120326571Y-89695000D02*
X121612285Y-89695000D01*
X121755142Y-89623571D01*
X121826571Y-89480714D01*
X121826571Y-89337857D01*
X121826571Y-88837857D02*
X120826571Y-88837857D01*
X120326571Y-88837857D02*
X120398000Y-88909285D01*
X120469428Y-88837857D01*
X120398000Y-88766428D01*
X120326571Y-88837857D01*
X120469428Y-88837857D01*
X121755142Y-87552142D02*
X121826571Y-87695000D01*
X121826571Y-87980714D01*
X121755142Y-88123571D01*
X121612285Y-88195000D01*
X121040857Y-88195000D01*
X120898000Y-88123571D01*
X120826571Y-87980714D01*
X120826571Y-87695000D01*
X120898000Y-87552142D01*
X121040857Y-87480714D01*
X121183714Y-87480714D01*
X121326571Y-88195000D01*
X120826571Y-86837857D02*
X121826571Y-86837857D01*
X120969428Y-86837857D02*
X120898000Y-86766428D01*
X120826571Y-86623571D01*
X120826571Y-86409285D01*
X120898000Y-86266428D01*
X121040857Y-86195000D01*
X121826571Y-86195000D01*
X120826571Y-85480714D02*
X121826571Y-85480714D01*
X120969428Y-85480714D02*
X120898000Y-85409285D01*
X120826571Y-85266428D01*
X120826571Y-85052142D01*
X120898000Y-84909285D01*
X121040857Y-84837857D01*
X121826571Y-84837857D01*
X121755142Y-83552142D02*
X121826571Y-83695000D01*
X121826571Y-83980714D01*
X121755142Y-84123571D01*
X121612285Y-84195000D01*
X121040857Y-84195000D01*
X120898000Y-84123571D01*
X120826571Y-83980714D01*
X120826571Y-83695000D01*
X120898000Y-83552142D01*
X121040857Y-83480714D01*
X121183714Y-83480714D01*
X121326571Y-84195000D01*
X124376571Y-112909285D02*
X122876571Y-112909285D01*
X123948000Y-112409285D01*
X122876571Y-111909285D01*
X124376571Y-111909285D01*
X124376571Y-110980714D02*
X124305142Y-111123571D01*
X124233714Y-111195000D01*
X124090857Y-111266428D01*
X123662285Y-111266428D01*
X123519428Y-111195000D01*
X123448000Y-111123571D01*
X123376571Y-110980714D01*
X123376571Y-110766428D01*
X123448000Y-110623571D01*
X123519428Y-110552142D01*
X123662285Y-110480714D01*
X124090857Y-110480714D01*
X124233714Y-110552142D01*
X124305142Y-110623571D01*
X124376571Y-110766428D01*
X124376571Y-110980714D01*
X124376571Y-109837857D02*
X123376571Y-109837857D01*
X123662285Y-109837857D02*
X123519428Y-109766428D01*
X123448000Y-109695000D01*
X123376571Y-109552142D01*
X123376571Y-109409285D01*
X124305142Y-108980714D02*
X124376571Y-108837857D01*
X124376571Y-108552142D01*
X124305142Y-108409285D01*
X124162285Y-108337857D01*
X124090857Y-108337857D01*
X123948000Y-108409285D01*
X123876571Y-108552142D01*
X123876571Y-108766428D01*
X123805142Y-108909285D01*
X123662285Y-108980714D01*
X123590857Y-108980714D01*
X123448000Y-108909285D01*
X123376571Y-108766428D01*
X123376571Y-108552142D01*
X123448000Y-108409285D01*
X124305142Y-107123571D02*
X124376571Y-107266428D01*
X124376571Y-107552142D01*
X124305142Y-107695000D01*
X124162285Y-107766428D01*
X123590857Y-107766428D01*
X123448000Y-107695000D01*
X123376571Y-107552142D01*
X123376571Y-107266428D01*
X123448000Y-107123571D01*
X123590857Y-107052142D01*
X123733714Y-107052142D01*
X123876571Y-107766428D01*
X124305142Y-104623571D02*
X124376571Y-104766428D01*
X124376571Y-105052142D01*
X124305142Y-105195000D01*
X124233714Y-105266428D01*
X124090857Y-105337857D01*
X123662285Y-105337857D01*
X123519428Y-105266428D01*
X123448000Y-105195000D01*
X123376571Y-105052142D01*
X123376571Y-104766428D01*
X123448000Y-104623571D01*
X124376571Y-103766428D02*
X124305142Y-103909285D01*
X124233714Y-103980714D01*
X124090857Y-104052142D01*
X123662285Y-104052142D01*
X123519428Y-103980714D01*
X123448000Y-103909285D01*
X123376571Y-103766428D01*
X123376571Y-103552142D01*
X123448000Y-103409285D01*
X123519428Y-103337857D01*
X123662285Y-103266428D01*
X124090857Y-103266428D01*
X124233714Y-103337857D01*
X124305142Y-103409285D01*
X124376571Y-103552142D01*
X124376571Y-103766428D01*
X124376571Y-101980714D02*
X122876571Y-101980714D01*
X124305142Y-101980714D02*
X124376571Y-102123571D01*
X124376571Y-102409285D01*
X124305142Y-102552142D01*
X124233714Y-102623571D01*
X124090857Y-102695000D01*
X123662285Y-102695000D01*
X123519428Y-102623571D01*
X123448000Y-102552142D01*
X123376571Y-102409285D01*
X123376571Y-102123571D01*
X123448000Y-101980714D01*
X124305142Y-100695000D02*
X124376571Y-100837857D01*
X124376571Y-101123571D01*
X124305142Y-101266428D01*
X124162285Y-101337857D01*
X123590857Y-101337857D01*
X123448000Y-101266428D01*
X123376571Y-101123571D01*
X123376571Y-100837857D01*
X123448000Y-100695000D01*
X123590857Y-100623571D01*
X123733714Y-100623571D01*
X123876571Y-101337857D01*
X124376571Y-98195000D02*
X122876571Y-98195000D01*
X124305142Y-98195000D02*
X124376571Y-98337857D01*
X124376571Y-98623571D01*
X124305142Y-98766428D01*
X124233714Y-98837857D01*
X124090857Y-98909285D01*
X123662285Y-98909285D01*
X123519428Y-98837857D01*
X123448000Y-98766428D01*
X123376571Y-98623571D01*
X123376571Y-98337857D01*
X123448000Y-98195000D01*
X124305142Y-96909285D02*
X124376571Y-97052142D01*
X124376571Y-97337857D01*
X124305142Y-97480714D01*
X124162285Y-97552142D01*
X123590857Y-97552142D01*
X123448000Y-97480714D01*
X123376571Y-97337857D01*
X123376571Y-97052142D01*
X123448000Y-96909285D01*
X123590857Y-96837857D01*
X123733714Y-96837857D01*
X123876571Y-97552142D01*
X123376571Y-96409285D02*
X123376571Y-95837857D01*
X122876571Y-96195000D02*
X124162285Y-96195000D01*
X124305142Y-96123571D01*
X124376571Y-95980714D01*
X124376571Y-95837857D01*
X124305142Y-94766428D02*
X124376571Y-94909285D01*
X124376571Y-95195000D01*
X124305142Y-95337857D01*
X124162285Y-95409285D01*
X123590857Y-95409285D01*
X123448000Y-95337857D01*
X123376571Y-95195000D01*
X123376571Y-94909285D01*
X123448000Y-94766428D01*
X123590857Y-94695000D01*
X123733714Y-94695000D01*
X123876571Y-95409285D01*
X124305142Y-93409285D02*
X124376571Y-93552142D01*
X124376571Y-93837857D01*
X124305142Y-93980714D01*
X124233714Y-94052142D01*
X124090857Y-94123571D01*
X123662285Y-94123571D01*
X123519428Y-94052142D01*
X123448000Y-93980714D01*
X123376571Y-93837857D01*
X123376571Y-93552142D01*
X123448000Y-93409285D01*
X123376571Y-92980714D02*
X123376571Y-92409285D01*
X122876571Y-92766428D02*
X124162285Y-92766428D01*
X124305142Y-92695000D01*
X124376571Y-92552142D01*
X124376571Y-92409285D01*
X124376571Y-91695000D02*
X124305142Y-91837857D01*
X124233714Y-91909285D01*
X124090857Y-91980714D01*
X123662285Y-91980714D01*
X123519428Y-91909285D01*
X123448000Y-91837857D01*
X123376571Y-91695000D01*
X123376571Y-91480714D01*
X123448000Y-91337857D01*
X123519428Y-91266428D01*
X123662285Y-91195000D01*
X124090857Y-91195000D01*
X124233714Y-91266428D01*
X124305142Y-91337857D01*
X124376571Y-91480714D01*
X124376571Y-91695000D01*
X124376571Y-90552142D02*
X123376571Y-90552142D01*
X123662285Y-90552142D02*
X123519428Y-90480714D01*
X123448000Y-90409285D01*
X123376571Y-90266428D01*
X123376571Y-90123571D01*
X122876571Y-88695000D02*
X124376571Y-88195000D01*
X122876571Y-87695000D01*
X124376571Y-86409285D02*
X124376571Y-87266428D01*
X124376571Y-86837857D02*
X122876571Y-86837857D01*
X123090857Y-86980714D01*
X123233714Y-87123571D01*
X123305142Y-87266428D01*
X126498000Y-111802142D02*
X126498000Y-111087857D01*
X126926571Y-111944999D02*
X125426571Y-111444999D01*
X126926571Y-110944999D01*
X125926571Y-109802142D02*
X126926571Y-109802142D01*
X125926571Y-110444999D02*
X126712285Y-110444999D01*
X126855142Y-110373571D01*
X126926571Y-110230714D01*
X126926571Y-110016428D01*
X126855142Y-109873571D01*
X126783714Y-109802142D01*
X125926571Y-109302142D02*
X125926571Y-108730714D01*
X125426571Y-109087857D02*
X126712285Y-109087857D01*
X126855142Y-109016428D01*
X126926571Y-108873571D01*
X126926571Y-108730714D01*
X126926571Y-108230714D02*
X125426571Y-108230714D01*
X126926571Y-107587857D02*
X126140857Y-107587857D01*
X125998000Y-107659285D01*
X125926571Y-107802142D01*
X125926571Y-108016428D01*
X125998000Y-108159285D01*
X126069428Y-108230714D01*
X126926571Y-106659285D02*
X126855142Y-106802142D01*
X126783714Y-106873571D01*
X126640857Y-106944999D01*
X126212285Y-106944999D01*
X126069428Y-106873571D01*
X125998000Y-106802142D01*
X125926571Y-106659285D01*
X125926571Y-106444999D01*
X125998000Y-106302142D01*
X126069428Y-106230714D01*
X126212285Y-106159285D01*
X126640857Y-106159285D01*
X126783714Y-106230714D01*
X126855142Y-106302142D01*
X126926571Y-106444999D01*
X126926571Y-106659285D01*
X126926571Y-105516428D02*
X125926571Y-105516428D01*
X126212285Y-105516428D02*
X126069428Y-105444999D01*
X125998000Y-105373571D01*
X125926571Y-105230714D01*
X125926571Y-105087857D01*
X126783714Y-104587857D02*
X126855142Y-104516428D01*
X126926571Y-104587857D01*
X126855142Y-104659285D01*
X126783714Y-104587857D01*
X126926571Y-104587857D01*
X125998000Y-104587857D02*
X126069428Y-104516428D01*
X126140857Y-104587857D01*
X126069428Y-104659285D01*
X125998000Y-104587857D01*
X126140857Y-104587857D01*
X126926571Y-102730714D02*
X125426571Y-102730714D01*
X126498000Y-102230714D01*
X125426571Y-101730714D01*
X126926571Y-101730714D01*
X126926571Y-100373571D02*
X126140857Y-100373571D01*
X125998000Y-100444999D01*
X125926571Y-100587857D01*
X125926571Y-100873571D01*
X125998000Y-101016428D01*
X126855142Y-100373571D02*
X126926571Y-100516428D01*
X126926571Y-100873571D01*
X126855142Y-101016428D01*
X126712285Y-101087857D01*
X126569428Y-101087857D01*
X126426571Y-101016428D01*
X126355142Y-100873571D01*
X126355142Y-100516428D01*
X126283714Y-100373571D01*
X126926571Y-99659285D02*
X125926571Y-99659285D01*
X126212285Y-99659285D02*
X126069428Y-99587857D01*
X125998000Y-99516428D01*
X125926571Y-99373571D01*
X125926571Y-99230714D01*
X125926571Y-98944999D02*
X125926571Y-98373571D01*
X125426571Y-98730714D02*
X126712285Y-98730714D01*
X126855142Y-98659285D01*
X126926571Y-98516428D01*
X126926571Y-98373571D01*
X126926571Y-97873571D02*
X125926571Y-97873571D01*
X125426571Y-97873571D02*
X125498000Y-97945000D01*
X125569428Y-97873571D01*
X125498000Y-97802142D01*
X125426571Y-97873571D01*
X125569428Y-97873571D01*
X125926571Y-97159285D02*
X126926571Y-97159285D01*
X126069428Y-97159285D02*
X125998000Y-97087857D01*
X125926571Y-96945000D01*
X125926571Y-96730714D01*
X125998000Y-96587857D01*
X126140857Y-96516428D01*
X126926571Y-96516428D01*
X126783714Y-93802142D02*
X126855142Y-93873571D01*
X126926571Y-94087857D01*
X126926571Y-94230714D01*
X126855142Y-94445000D01*
X126712285Y-94587857D01*
X126569428Y-94659285D01*
X126283714Y-94730714D01*
X126069428Y-94730714D01*
X125783714Y-94659285D01*
X125640857Y-94587857D01*
X125498000Y-94445000D01*
X125426571Y-94230714D01*
X125426571Y-94087857D01*
X125498000Y-93873571D01*
X125569428Y-93802142D01*
X125426571Y-92873571D02*
X125426571Y-92587857D01*
X125498000Y-92445000D01*
X125640857Y-92302142D01*
X125926571Y-92230714D01*
X126426571Y-92230714D01*
X126712285Y-92302142D01*
X126855142Y-92445000D01*
X126926571Y-92587857D01*
X126926571Y-92873571D01*
X126855142Y-93016428D01*
X126712285Y-93159285D01*
X126426571Y-93230714D01*
X125926571Y-93230714D01*
X125640857Y-93159285D01*
X125498000Y-93016428D01*
X125426571Y-92873571D01*
X126926571Y-90730714D02*
X126212285Y-91230714D01*
X126926571Y-91587857D02*
X125426571Y-91587857D01*
X125426571Y-91016428D01*
X125498000Y-90873571D01*
X125569428Y-90802142D01*
X125712285Y-90730714D01*
X125926571Y-90730714D01*
X126069428Y-90802142D01*
X126140857Y-90873571D01*
X126212285Y-91016428D01*
X126212285Y-91587857D01*
X126926571Y-90087857D02*
X125426571Y-90087857D01*
X126926571Y-89230714D01*
X125426571Y-89230714D01*
X125426571Y-88516428D02*
X126640857Y-88516428D01*
X126783714Y-88445000D01*
X126855142Y-88373571D01*
X126926571Y-88230714D01*
X126926571Y-87945000D01*
X126855142Y-87802142D01*
X126783714Y-87730714D01*
X126640857Y-87659285D01*
X125426571Y-87659285D01*
D11*
G04 #@! TO.C,P1*
X140208000Y-125095000D02*
X157988000Y-125095000D01*
X157988000Y-125095000D02*
X157988000Y-122555000D01*
X157988000Y-122555000D02*
X140208000Y-122555000D01*
X137388000Y-125375000D02*
X138938000Y-125375000D01*
X140208000Y-125095000D02*
X140208000Y-122555000D01*
X138938000Y-122275000D02*
X137388000Y-122275000D01*
X137388000Y-122275000D02*
X137388000Y-125375000D01*
G04 #@! TO.C,P2*
X163068000Y-125095000D02*
X175768000Y-125095000D01*
X175768000Y-125095000D02*
X175768000Y-122555000D01*
X175768000Y-122555000D02*
X163068000Y-122555000D01*
X160248000Y-125375000D02*
X161798000Y-125375000D01*
X163068000Y-125095000D02*
X163068000Y-122555000D01*
X161798000Y-122275000D02*
X160248000Y-122275000D01*
X160248000Y-122275000D02*
X160248000Y-125375000D01*
G04 #@! TO.C,P3*
X131064000Y-76835000D02*
X153924000Y-76835000D01*
X153924000Y-76835000D02*
X153924000Y-74295000D01*
X153924000Y-74295000D02*
X131064000Y-74295000D01*
X128244000Y-77115000D02*
X129794000Y-77115000D01*
X131064000Y-76835000D02*
X131064000Y-74295000D01*
X129794000Y-74015000D02*
X128244000Y-74015000D01*
X128244000Y-74015000D02*
X128244000Y-77115000D01*
G04 #@! TO.C,P4*
X157988000Y-76835000D02*
X175768000Y-76835000D01*
X175768000Y-76835000D02*
X175768000Y-74295000D01*
X175768000Y-74295000D02*
X157988000Y-74295000D01*
X155168000Y-77115000D02*
X156718000Y-77115000D01*
X157988000Y-76835000D02*
X157988000Y-74295000D01*
X156718000Y-74015000D02*
X155168000Y-74015000D01*
X155168000Y-74015000D02*
X155168000Y-77115000D01*
G04 #@! TO.C,P5*
X127254000Y-123825000D02*
G75*
G03X127254000Y-123825000I-2286000J0D01*
G01*
G04 #@! TO.C,P6*
X179324000Y-118745000D02*
G75*
G03X179324000Y-118745000I-2286000J0D01*
G01*
G04 #@! TO.C,P7*
X128524000Y-75565000D02*
G75*
G03X128524000Y-75565000I-2286000J0D01*
G01*
G04 #@! TO.C,P8*
X179324000Y-90805000D02*
G75*
G03X179324000Y-90805000I-2286000J0D01*
G01*
D12*
G04 #@! TO.C,D1*
X161998000Y-83785000D02*
X159058000Y-83785000D01*
X161998000Y-84025000D02*
X159058000Y-84025000D01*
X161998000Y-83905000D02*
X159058000Y-83905000D01*
X160528000Y-89465000D02*
X160528000Y-88445000D01*
X160528000Y-81985000D02*
X160528000Y-83005000D01*
X161998000Y-88445000D02*
X161998000Y-83005000D01*
X159058000Y-88445000D02*
X161998000Y-88445000D01*
X159058000Y-83005000D02*
X159058000Y-88445000D01*
X161998000Y-83005000D02*
X159058000Y-83005000D01*
G04 #@! TO.C,J_ALIM1*
X171958000Y-113665000D02*
X171958000Y-103505000D01*
X170688000Y-113665000D02*
X178308000Y-113665000D01*
X178308000Y-113665000D02*
X178308000Y-103505000D01*
X178308000Y-103505000D02*
X170688000Y-103505000D01*
X170688000Y-103505000D02*
X170688000Y-113665000D01*
G04 #@! TO.C,J_MAGNET1*
X168148000Y-78105000D02*
X168148000Y-88265000D01*
X175768000Y-78105000D02*
X168148000Y-78105000D01*
X175768000Y-88265000D02*
X175768000Y-78105000D01*
X168148000Y-88265000D02*
X175768000Y-88265000D01*
X169418000Y-88265000D02*
X169418000Y-78105000D01*
G04 #@! TO.C,Q1*
X138398000Y-102816000D02*
X136888000Y-102816000D01*
X138398000Y-99115000D02*
X136888000Y-99115000D01*
X136888000Y-95845000D02*
X136888000Y-106085000D01*
X138398000Y-106085000D02*
X133757000Y-106085000D01*
X138398000Y-95845000D02*
X133757000Y-95845000D01*
X133757000Y-95845000D02*
X133757000Y-106085000D01*
X138398000Y-95845000D02*
X138398000Y-106085000D01*
G04 #@! TO.C,R1*
X136848000Y-82375000D02*
X133408000Y-82375000D01*
X133408000Y-82375000D02*
X133408000Y-91615000D01*
X133408000Y-91615000D02*
X136848000Y-91615000D01*
X136848000Y-91615000D02*
X136848000Y-82375000D01*
X135128000Y-81685000D02*
X135128000Y-82375000D01*
X135128000Y-92305000D02*
X135128000Y-91615000D01*
G04 #@! TO.C,R2*
X144468000Y-82375000D02*
X141028000Y-82375000D01*
X141028000Y-82375000D02*
X141028000Y-91615000D01*
X141028000Y-91615000D02*
X144468000Y-91615000D01*
X144468000Y-91615000D02*
X144468000Y-82375000D01*
X142748000Y-81685000D02*
X142748000Y-82375000D01*
X142748000Y-92305000D02*
X142748000Y-91615000D01*
G04 #@! TO.C,R3*
X150368000Y-92305000D02*
X150368000Y-91615000D01*
X150368000Y-81685000D02*
X150368000Y-82375000D01*
X152088000Y-91615000D02*
X152088000Y-82375000D01*
X148648000Y-91615000D02*
X152088000Y-91615000D01*
X148648000Y-82375000D02*
X148648000Y-91615000D01*
X152088000Y-82375000D02*
X148648000Y-82375000D01*
G04 #@! TO.C,R4*
X160528000Y-102005000D02*
X160528000Y-102695000D01*
X160528000Y-112625000D02*
X160528000Y-111935000D01*
X158808000Y-102695000D02*
X158808000Y-111935000D01*
X162248000Y-102695000D02*
X158808000Y-102695000D01*
X162248000Y-111935000D02*
X162248000Y-102695000D01*
X158808000Y-111935000D02*
X162248000Y-111935000D01*
G04 #@! TO.C,R0*
X145228000Y-117535000D02*
X147888000Y-117535000D01*
X145228000Y-114935000D02*
X145228000Y-117535000D01*
X147888000Y-114935000D02*
X147888000Y-117535000D01*
X145228000Y-114935000D02*
X147888000Y-114935000D01*
X145228000Y-113665000D02*
X145228000Y-112335000D01*
X145228000Y-112335000D02*
X146558000Y-112335000D01*
G04 #@! TO.C,DGREEN1*
X144078000Y-99635000D02*
X141418000Y-99635000D01*
X144078000Y-102235000D02*
X144078000Y-99635000D01*
X141418000Y-102235000D02*
X141418000Y-99635000D01*
X144078000Y-102235000D02*
X141418000Y-102235000D01*
X144078000Y-103505000D02*
X144078000Y-104835000D01*
X144078000Y-104835000D02*
X142748000Y-104835000D01*
G04 #@! TO.C,DRED1*
X151698000Y-104835000D02*
X150368000Y-104835000D01*
X151698000Y-103505000D02*
X151698000Y-104835000D01*
X151698000Y-102235000D02*
X149038000Y-102235000D01*
X149038000Y-102235000D02*
X149038000Y-99635000D01*
X151698000Y-102235000D02*
X151698000Y-99635000D01*
X151698000Y-99635000D02*
X149038000Y-99635000D01*
G04 #@! TO.C,P1*
D11*
X138199904Y-121737380D02*
X138199904Y-120737380D01*
X138580857Y-120737380D01*
X138676095Y-120785000D01*
X138723714Y-120832619D01*
X138771333Y-120927857D01*
X138771333Y-121070714D01*
X138723714Y-121165952D01*
X138676095Y-121213571D01*
X138580857Y-121261190D01*
X138199904Y-121261190D01*
X139723714Y-121737380D02*
X139152285Y-121737380D01*
X139438000Y-121737380D02*
X139438000Y-120737380D01*
X139342761Y-120880238D01*
X139247523Y-120975476D01*
X139152285Y-121023095D01*
G04 #@! TO.C,P2*
X161059904Y-121737380D02*
X161059904Y-120737380D01*
X161440857Y-120737380D01*
X161536095Y-120785000D01*
X161583714Y-120832619D01*
X161631333Y-120927857D01*
X161631333Y-121070714D01*
X161583714Y-121165952D01*
X161536095Y-121213571D01*
X161440857Y-121261190D01*
X161059904Y-121261190D01*
X162012285Y-120832619D02*
X162059904Y-120785000D01*
X162155142Y-120737380D01*
X162393238Y-120737380D01*
X162488476Y-120785000D01*
X162536095Y-120832619D01*
X162583714Y-120927857D01*
X162583714Y-121023095D01*
X162536095Y-121165952D01*
X161964666Y-121737380D01*
X162583714Y-121737380D01*
G04 #@! TO.C,P3*
X129309904Y-78557380D02*
X129309904Y-77557380D01*
X129690857Y-77557380D01*
X129786095Y-77605000D01*
X129833714Y-77652619D01*
X129881333Y-77747857D01*
X129881333Y-77890714D01*
X129833714Y-77985952D01*
X129786095Y-78033571D01*
X129690857Y-78081190D01*
X129309904Y-78081190D01*
X130214666Y-77557380D02*
X130833714Y-77557380D01*
X130500380Y-77938333D01*
X130643238Y-77938333D01*
X130738476Y-77985952D01*
X130786095Y-78033571D01*
X130833714Y-78128809D01*
X130833714Y-78366904D01*
X130786095Y-78462142D01*
X130738476Y-78509761D01*
X130643238Y-78557380D01*
X130357523Y-78557380D01*
X130262285Y-78509761D01*
X130214666Y-78462142D01*
G04 #@! TO.C,P4*
X155979904Y-78557380D02*
X155979904Y-77557380D01*
X156360857Y-77557380D01*
X156456095Y-77605000D01*
X156503714Y-77652619D01*
X156551333Y-77747857D01*
X156551333Y-77890714D01*
X156503714Y-77985952D01*
X156456095Y-78033571D01*
X156360857Y-78081190D01*
X155979904Y-78081190D01*
X157408476Y-77890714D02*
X157408476Y-78557380D01*
X157170380Y-77509761D02*
X156932285Y-78224047D01*
X157551333Y-78224047D01*
G04 #@! TO.C,D1*
X163450380Y-85193095D02*
X162450380Y-85193095D01*
X162450380Y-84955000D01*
X162498000Y-84812142D01*
X162593238Y-84716904D01*
X162688476Y-84669285D01*
X162878952Y-84621666D01*
X163021809Y-84621666D01*
X163212285Y-84669285D01*
X163307523Y-84716904D01*
X163402761Y-84812142D01*
X163450380Y-84955000D01*
X163450380Y-85193095D01*
X163450380Y-83669285D02*
X163450380Y-84240714D01*
X163450380Y-83955000D02*
X162450380Y-83955000D01*
X162593238Y-84050238D01*
X162688476Y-84145476D01*
X162736095Y-84240714D01*
X163520380Y-80906904D02*
X162520380Y-80906904D01*
X163520380Y-80335476D02*
X162948952Y-80764047D01*
X162520380Y-80335476D02*
X163091809Y-80906904D01*
G04 #@! TO.C,J_ALIM1*
X168870380Y-110942142D02*
X169584666Y-110942142D01*
X169727523Y-110989761D01*
X169822761Y-111085000D01*
X169870380Y-111227857D01*
X169870380Y-111323095D01*
X169965619Y-110704047D02*
X169965619Y-109942142D01*
X169584666Y-109751666D02*
X169584666Y-109275476D01*
X169870380Y-109846904D02*
X168870380Y-109513571D01*
X169870380Y-109180238D01*
X169870380Y-108370714D02*
X169870380Y-108846904D01*
X168870380Y-108846904D01*
X169870380Y-108037380D02*
X168870380Y-108037380D01*
X169870380Y-107561190D02*
X168870380Y-107561190D01*
X169584666Y-107227857D01*
X168870380Y-106894523D01*
X169870380Y-106894523D01*
X169870380Y-105894523D02*
X169870380Y-106465952D01*
X169870380Y-106180238D02*
X168870380Y-106180238D01*
X169013238Y-106275476D01*
X169108476Y-106370714D01*
X169156095Y-106465952D01*
G04 #@! TO.C,J_MAGNET1*
X166330380Y-95646428D02*
X167044666Y-95646428D01*
X167187523Y-95694047D01*
X167282761Y-95789285D01*
X167330380Y-95932142D01*
X167330380Y-96027380D01*
X167425619Y-95408333D02*
X167425619Y-94646428D01*
X167330380Y-94408333D02*
X166330380Y-94408333D01*
X167044666Y-94075000D01*
X166330380Y-93741666D01*
X167330380Y-93741666D01*
X167044666Y-93313095D02*
X167044666Y-92836904D01*
X167330380Y-93408333D02*
X166330380Y-93075000D01*
X167330380Y-92741666D01*
X166378000Y-91884523D02*
X166330380Y-91979761D01*
X166330380Y-92122619D01*
X166378000Y-92265476D01*
X166473238Y-92360714D01*
X166568476Y-92408333D01*
X166758952Y-92455952D01*
X166901809Y-92455952D01*
X167092285Y-92408333D01*
X167187523Y-92360714D01*
X167282761Y-92265476D01*
X167330380Y-92122619D01*
X167330380Y-92027380D01*
X167282761Y-91884523D01*
X167235142Y-91836904D01*
X166901809Y-91836904D01*
X166901809Y-92027380D01*
X167330380Y-91408333D02*
X166330380Y-91408333D01*
X167330380Y-90836904D01*
X166330380Y-90836904D01*
X166806571Y-90360714D02*
X166806571Y-90027380D01*
X167330380Y-89884523D02*
X167330380Y-90360714D01*
X166330380Y-90360714D01*
X166330380Y-89884523D01*
X166330380Y-89598809D02*
X166330380Y-89027380D01*
X167330380Y-89313095D02*
X166330380Y-89313095D01*
X167330380Y-88170238D02*
X167330380Y-88741666D01*
X167330380Y-88455952D02*
X166330380Y-88455952D01*
X166473238Y-88551190D01*
X166568476Y-88646428D01*
X166616095Y-88741666D01*
G04 #@! TO.C,Q1*
X131222761Y-97702619D02*
X131127523Y-97655000D01*
X131032285Y-97559761D01*
X130889428Y-97416904D01*
X130794190Y-97369285D01*
X130698952Y-97369285D01*
X130746571Y-97607380D02*
X130651333Y-97559761D01*
X130556095Y-97464523D01*
X130508476Y-97274047D01*
X130508476Y-96940714D01*
X130556095Y-96750238D01*
X130651333Y-96655000D01*
X130746571Y-96607380D01*
X130937047Y-96607380D01*
X131032285Y-96655000D01*
X131127523Y-96750238D01*
X131175142Y-96940714D01*
X131175142Y-97274047D01*
X131127523Y-97464523D01*
X131032285Y-97559761D01*
X130937047Y-97607380D01*
X130746571Y-97607380D01*
X132127523Y-97607380D02*
X131556095Y-97607380D01*
X131841809Y-97607380D02*
X131841809Y-96607380D01*
X131746571Y-96750238D01*
X131651333Y-96845476D01*
X131556095Y-96893095D01*
G04 #@! TO.C,R1*
X132421333Y-81097380D02*
X132088000Y-80621190D01*
X131849904Y-81097380D02*
X131849904Y-80097380D01*
X132230857Y-80097380D01*
X132326095Y-80145000D01*
X132373714Y-80192619D01*
X132421333Y-80287857D01*
X132421333Y-80430714D01*
X132373714Y-80525952D01*
X132326095Y-80573571D01*
X132230857Y-80621190D01*
X131849904Y-80621190D01*
X133373714Y-81097380D02*
X132802285Y-81097380D01*
X133088000Y-81097380D02*
X133088000Y-80097380D01*
X132992761Y-80240238D01*
X132897523Y-80335476D01*
X132802285Y-80383095D01*
G04 #@! TO.C,R2*
X145121333Y-81097380D02*
X144788000Y-80621190D01*
X144549904Y-81097380D02*
X144549904Y-80097380D01*
X144930857Y-80097380D01*
X145026095Y-80145000D01*
X145073714Y-80192619D01*
X145121333Y-80287857D01*
X145121333Y-80430714D01*
X145073714Y-80525952D01*
X145026095Y-80573571D01*
X144930857Y-80621190D01*
X144549904Y-80621190D01*
X145502285Y-80192619D02*
X145549904Y-80145000D01*
X145645142Y-80097380D01*
X145883238Y-80097380D01*
X145978476Y-80145000D01*
X146026095Y-80192619D01*
X146073714Y-80287857D01*
X146073714Y-80383095D01*
X146026095Y-80525952D01*
X145454666Y-81097380D01*
X146073714Y-81097380D01*
G04 #@! TO.C,R3*
X152741333Y-81097380D02*
X152408000Y-80621190D01*
X152169904Y-81097380D02*
X152169904Y-80097380D01*
X152550857Y-80097380D01*
X152646095Y-80145000D01*
X152693714Y-80192619D01*
X152741333Y-80287857D01*
X152741333Y-80430714D01*
X152693714Y-80525952D01*
X152646095Y-80573571D01*
X152550857Y-80621190D01*
X152169904Y-80621190D01*
X153074666Y-80097380D02*
X153693714Y-80097380D01*
X153360380Y-80478333D01*
X153503238Y-80478333D01*
X153598476Y-80525952D01*
X153646095Y-80573571D01*
X153693714Y-80668809D01*
X153693714Y-80906904D01*
X153646095Y-81002142D01*
X153598476Y-81049761D01*
X153503238Y-81097380D01*
X153217523Y-81097380D01*
X153122285Y-81049761D01*
X153074666Y-81002142D01*
G04 #@! TO.C,R4*
X162901333Y-101417380D02*
X162568000Y-100941190D01*
X162329904Y-101417380D02*
X162329904Y-100417380D01*
X162710857Y-100417380D01*
X162806095Y-100465000D01*
X162853714Y-100512619D01*
X162901333Y-100607857D01*
X162901333Y-100750714D01*
X162853714Y-100845952D01*
X162806095Y-100893571D01*
X162710857Y-100941190D01*
X162329904Y-100941190D01*
X163758476Y-100750714D02*
X163758476Y-101417380D01*
X163520380Y-100369761D02*
X163282285Y-101084047D01*
X163901333Y-101084047D01*
G04 #@! TO.C,R0*
X143851333Y-114117380D02*
X143518000Y-113641190D01*
X143279904Y-114117380D02*
X143279904Y-113117380D01*
X143660857Y-113117380D01*
X143756095Y-113165000D01*
X143803714Y-113212619D01*
X143851333Y-113307857D01*
X143851333Y-113450714D01*
X143803714Y-113545952D01*
X143756095Y-113593571D01*
X143660857Y-113641190D01*
X143279904Y-113641190D01*
X144470380Y-113117380D02*
X144565619Y-113117380D01*
X144660857Y-113165000D01*
X144708476Y-113212619D01*
X144756095Y-113307857D01*
X144803714Y-113498333D01*
X144803714Y-113736428D01*
X144756095Y-113926904D01*
X144708476Y-114022142D01*
X144660857Y-114069761D01*
X144565619Y-114117380D01*
X144470380Y-114117380D01*
X144375142Y-114069761D01*
X144327523Y-114022142D01*
X144279904Y-113926904D01*
X144232285Y-113736428D01*
X144232285Y-113498333D01*
X144279904Y-113307857D01*
X144327523Y-113212619D01*
X144375142Y-113165000D01*
X144470380Y-113117380D01*
G04 #@! TO.C,DGREEN1*
X139581333Y-106497380D02*
X139581333Y-105497380D01*
X139819428Y-105497380D01*
X139962285Y-105545000D01*
X140057523Y-105640238D01*
X140105142Y-105735476D01*
X140152761Y-105925952D01*
X140152761Y-106068809D01*
X140105142Y-106259285D01*
X140057523Y-106354523D01*
X139962285Y-106449761D01*
X139819428Y-106497380D01*
X139581333Y-106497380D01*
X141105142Y-105545000D02*
X141009904Y-105497380D01*
X140867047Y-105497380D01*
X140724190Y-105545000D01*
X140628952Y-105640238D01*
X140581333Y-105735476D01*
X140533714Y-105925952D01*
X140533714Y-106068809D01*
X140581333Y-106259285D01*
X140628952Y-106354523D01*
X140724190Y-106449761D01*
X140867047Y-106497380D01*
X140962285Y-106497380D01*
X141105142Y-106449761D01*
X141152761Y-106402142D01*
X141152761Y-106068809D01*
X140962285Y-106068809D01*
X142152761Y-106497380D02*
X141819428Y-106021190D01*
X141581333Y-106497380D02*
X141581333Y-105497380D01*
X141962285Y-105497380D01*
X142057523Y-105545000D01*
X142105142Y-105592619D01*
X142152761Y-105687857D01*
X142152761Y-105830714D01*
X142105142Y-105925952D01*
X142057523Y-105973571D01*
X141962285Y-106021190D01*
X141581333Y-106021190D01*
X142581333Y-105973571D02*
X142914666Y-105973571D01*
X143057523Y-106497380D02*
X142581333Y-106497380D01*
X142581333Y-105497380D01*
X143057523Y-105497380D01*
X143486095Y-105973571D02*
X143819428Y-105973571D01*
X143962285Y-106497380D02*
X143486095Y-106497380D01*
X143486095Y-105497380D01*
X143962285Y-105497380D01*
X144390857Y-106497380D02*
X144390857Y-105497380D01*
X144962285Y-106497380D01*
X144962285Y-105497380D01*
X145962285Y-106497380D02*
X145390857Y-106497380D01*
X145676571Y-106497380D02*
X145676571Y-105497380D01*
X145581333Y-105640238D01*
X145486095Y-105735476D01*
X145390857Y-105783095D01*
G04 #@! TO.C,DRED1*
X148177523Y-106497380D02*
X148177523Y-105497380D01*
X148415619Y-105497380D01*
X148558476Y-105545000D01*
X148653714Y-105640238D01*
X148701333Y-105735476D01*
X148748952Y-105925952D01*
X148748952Y-106068809D01*
X148701333Y-106259285D01*
X148653714Y-106354523D01*
X148558476Y-106449761D01*
X148415619Y-106497380D01*
X148177523Y-106497380D01*
X149748952Y-106497380D02*
X149415619Y-106021190D01*
X149177523Y-106497380D02*
X149177523Y-105497380D01*
X149558476Y-105497380D01*
X149653714Y-105545000D01*
X149701333Y-105592619D01*
X149748952Y-105687857D01*
X149748952Y-105830714D01*
X149701333Y-105925952D01*
X149653714Y-105973571D01*
X149558476Y-106021190D01*
X149177523Y-106021190D01*
X150177523Y-105973571D02*
X150510857Y-105973571D01*
X150653714Y-106497380D02*
X150177523Y-106497380D01*
X150177523Y-105497380D01*
X150653714Y-105497380D01*
X151082285Y-106497380D02*
X151082285Y-105497380D01*
X151320380Y-105497380D01*
X151463238Y-105545000D01*
X151558476Y-105640238D01*
X151606095Y-105735476D01*
X151653714Y-105925952D01*
X151653714Y-106068809D01*
X151606095Y-106259285D01*
X151558476Y-106354523D01*
X151463238Y-106449761D01*
X151320380Y-106497380D01*
X151082285Y-106497380D01*
X152606095Y-106497380D02*
X152034666Y-106497380D01*
X152320380Y-106497380D02*
X152320380Y-105497380D01*
X152225142Y-105640238D01*
X152129904Y-105735476D01*
X152034666Y-105783095D01*
G04 #@! TD*
M02*
