M48
;DRILL file {KiCad (5.0.2)-1} date 31/12/2018 00:39:39
;FORMAT={-:-/ absolute / inch / decimal}
FMAT,2
INCH,TZ
T1C0.0315
T2C0.0394
T3C0.0400
T4C0.0433
T5C0.0598
T6C0.1200
%
G90
G05
T1
X6.32Y-3.975
X6.32Y-4.475
X5.92Y-3.675
X5.62Y-3.175
X5.62Y-3.675
X5.32Y-3.175
X5.32Y-3.675
X5.92Y-3.175
T2
X5.92Y-3.975
X5.92Y-4.075
X5.77Y-4.475
X5.77Y-4.575
X5.62Y-3.975
X5.62Y-4.075
T3
X6.17Y-2.975
X6.27Y-2.975
X6.37Y-2.975
X6.47Y-2.975
X6.57Y-2.975
X6.67Y-2.975
X6.77Y-2.975
X6.87Y-2.975
X5.11Y-2.975
X5.21Y-2.975
X5.31Y-2.975
X5.41Y-2.975
X5.51Y-2.975
X5.61Y-2.975
X5.71Y-2.975
X5.81Y-2.975
X5.91Y-2.975
X6.01Y-2.975
X5.47Y-4.875
X5.57Y-4.875
X5.67Y-4.875
X5.77Y-4.875
X5.87Y-4.875
X5.97Y-4.875
X6.07Y-4.875
X6.17Y-4.875
X6.37Y-4.875
X6.47Y-4.875
X6.57Y-4.875
X6.67Y-4.875
X6.77Y-4.875
X6.87Y-4.875
T4
X6.32Y-3.175
X6.32Y-3.575
X5.32Y-3.875
X5.32Y-3.975
X5.32Y-4.075
T5
X6.77Y-3.175
X6.77Y-3.375
X6.87Y-4.175
X6.87Y-4.375
T6
X4.92Y-4.875
X6.97Y-3.575
X4.97Y-2.975
X6.97Y-4.675
T0
M30
